<svg version="1" xmlns="http://www.w3.org/2000/svg" width="346.667" height="346.667" viewBox="0 0 260.000000 260.000000"><path d="M246.3 2.2c-9 10-36.2 30.6-52.8 39.9-8.1 4.5-27.6 14-35.2 17C143 65.2 121.4 72 117.1 72c-1.9 0-2.1.6-2.2 8.2-.1 4.6-.3 9.4-.4 10.8-.1 1.4-.5 6.5-.9 11.5-.3 4.9-.8 10.1-1 11.5-.3 1.4-1 5.9-1.6 10-3.5 22.6-12.4 48.2-22.6 65.3-16.3 27.2-43.6 48.2-67 51.4-2.4.3-4.4.9-4.4 1.3s4.2 4.6 9.3 9.4c10.7 10 8.1 9.6 29.7 4.4 16.3-3.9 31.2-9.4 48.5-17.8 60-29.3 105.3-85.8 129.1-161.2 6.2-19.8 10.9-39.8 13-54.8.3-2.5.8-4.8 1-5.1.5-.9 1.7-16.9 1.2-16.9-.3 0-1.4 1-2.5 2.2z"/></svg>